<?xml version="1.0" encoding="UTF-8" standalone="no"?>
<!DOCTYPE svg PUBLIC "-//W3C//DTD SVG 1.1//EN" "http://www.w3.org/Graphics/SVG/1.1/DTD/svg11.dtd">
<svg width="100%" height="100%" viewBox="0 0 1000 1000" version="1.1" xmlns="http://www.w3.org/2000/svg" xmlns:xlink="http://www.w3.org/1999/xlink" xml:space="preserve" xmlns:serif="http://www.serif.com/" style="fill-rule:evenodd;clip-rule:evenodd;stroke-linejoin:round;stroke-miterlimit:2;">
    <g transform="matrix(1.9229,0,0,1.9229,-559.658,-278.32)">
        <g transform="matrix(3.40552,0,0,3.31485,-1790.04,-948.661)">
            <g transform="matrix(16,0,0,16,756.143,424.807)">
            </g>
            <text x="734.799px" y="424.807px" style="font-family:'ArialMT', 'Arial', sans-serif;font-size:16px;fill:rgb(64,71,87);">SA</text>
        </g>
        <path d="M317.34,374.581C317.34,374.581 413.091,375.247 433.863,374.581C436.875,374.484 440.022,372.334 441.971,370.585C443.921,368.835 445.162,366.528 445.559,364.086C446.157,360.406 445.559,348.502 445.559,348.502C445.559,348.502 348.362,347.796 327.517,348.502C324.781,348.595 322.18,350.731 320.484,352.741C318.788,354.75 317.74,357.779 317.34,360.559C316.815,364.199 317.34,374.581 317.34,374.581Z" style="fill:url(#_Linear1);"/>
        <path d="M351.137,395.032C351.137,395.032 334.314,394.461 329.547,395.032C326.964,395.341 324.596,396.564 322.534,398.457C320.472,400.351 318.193,404.014 317.848,407.345C316.983,415.704 316.838,441.694 317.34,448.613C317.567,451.758 319.706,454.86 321.824,456.941C323.943,459.022 326.979,460.994 330.05,461.098C350.672,461.79 445.559,461.098 445.559,461.098C445.559,461.098 446.118,448.448 445.559,444.606C445.205,442.175 444.135,439.862 442.205,438.044C440.275,436.226 437.077,433.846 433.98,433.698C418.802,432.973 351.137,433.698 351.137,433.698L351.137,395.032Z" style="fill:rgb(64,71,87);"/>
        <path d="M471.551,348.502C471.551,348.502 488.893,347.651 493.944,348.502C497.041,349.023 500.001,351.282 501.861,353.606C503.721,355.93 504.979,359.31 505.106,362.446C505.647,375.795 505.106,433.698 505.106,433.698C505.106,433.698 572.965,432.817 588.242,433.698C591.581,433.89 594.719,436.715 596.771,438.985C598.822,441.254 600.039,444.311 600.553,447.317C601.184,451.003 600.553,461.098 600.553,461.098C600.553,461.098 505.884,461.754 485.186,461.098C481.967,460.996 478.637,459.34 476.364,457.16C474.092,454.98 471.704,451.459 471.551,448.019C470.749,429.909 471.551,348.502 471.551,348.502Z" style="fill:rgb(64,71,87);"/>
        <path d="M582.124,374.581L631.5,374.581L631.5,461.098L664.533,461.098L664.533,374.581C664.533,374.581 695.043,375.328 702.773,374.581C705.856,374.282 708.912,372.202 710.913,370.096C712.913,367.99 714.248,364.906 714.777,361.947C715.422,358.348 714.777,348.502 714.777,348.502C714.777,348.502 613.974,347.985 592.504,348.502C590.089,348.56 587.683,349.883 585.953,351.601C584.223,353.319 582.572,356.126 582.124,358.81C581.486,362.64 582.124,374.581 582.124,374.581Z" style="fill:rgb(64,71,87);"/>
    </g>
    <defs>
        <linearGradient id="_Linear1" x1="0" y1="0" x2="1" y2="0" gradientUnits="userSpaceOnUse" gradientTransform="matrix(128.718,0,0,26.6885,317.107,361.532)"><stop offset="0" style="stop-color:rgb(103,116,179);stop-opacity:1"/><stop offset="0.5" style="stop-color:rgb(102,185,227);stop-opacity:1"/><stop offset="1" style="stop-color:rgb(143,203,191);stop-opacity:1"/></linearGradient>
    </defs>
</svg>
