<?xml version="1.0" standalone="no"?>
<!DOCTYPE svg PUBLIC "-//W3C//DTD SVG 20010904//EN"
 "http://www.w3.org/TR/2001/REC-SVG-20010904/DTD/svg10.dtd">
<svg version="1.0" xmlns="http://www.w3.org/2000/svg"
 width="700.000000pt" height="700.000000pt" viewBox="0 0 700.000000 700.000000"
 preserveAspectRatio="xMidYMid meet">
<metadata>
Created by potrace 1.14, written by Peter Selinger 2001-2017
</metadata>
<g transform="translate(0.000000,700.000000) scale(0.100000,-0.100000)"
fill="#000000" stroke="none">
<path d="M2738 5516 c-97 -26 -157 -98 -165 -199 -6 -70 7 -112 51 -164 50
-60 154 -91 226 -68 13 4 77 -53 245 -220 193 -192 232 -226 254 -223 14 1 32
-1 39 -5 7 -5 12 -3 12 4 0 8 4 8 13 1 8 -7 18 -7 27 -2 9 5 19 5 27 -2 9 -7
13 -7 13 1 0 7 5 9 12 5 14 -9 58 -12 58 -4 0 6 480 3 523 -3 15 -2 30 -1 32
3 6 9 25 8 43 -3 7 -5 12 -3 12 3 0 7 5 8 13 3 17 -11 29 -11 51 0 13 6 16 6
12 -2 -5 -8 0 -8 17 -2 13 5 30 5 37 1 8 -5 22 -4 31 1 12 6 20 5 24 -1 4 -6
9 -8 13 -6 4 2 29 7 56 10 27 4 52 9 56 11 8 5 51 13 120 22 110 14 340 6 420
-14 14 -4 27 -7 30 -8 3 0 23 -5 45 -10 45 -9 44 -9 65 -18 8 -3 41 -15 73
-26 196 -67 437 -244 572 -421 27 -36 52 -67 55 -70 37 -35 170 -330 184 -412
2 -15 7 -32 10 -37 3 -4 8 -28 10 -52 3 -24 8 -57 11 -74 10 -47 12 -218 4
-298 -32 -308 -161 -579 -384 -802 -241 -243 -575 -383 -909 -381 l-118 1 -25
48 c-32 60 -34 166 -3 159 24 -6 186 -4 248 3 322 34 609 207 800 482 23 34
42 66 42 72 0 6 5 11 10 11 6 0 10 4 10 9 0 5 12 35 27 67 15 33 28 61 28 64
1 3 12 39 25 80 13 41 28 108 35 149 12 74 12 295 0 341 -3 14 -8 36 -9 50
-13 97 -88 279 -156 380 -84 126 -111 150 -137 128 -9 -7 -14 -8 -10 -2 4 6
-10 10 -38 10 -24 -1 -41 -5 -37 -10 3 -5 -2 -7 -11 -3 -11 4 -17 1 -17 -9 0
-8 -4 -12 -10 -9 -6 4 -7 -1 -3 -11 5 -14 3 -16 -13 -10 -12 5 -6 -6 17 -31
20 -21 45 -49 55 -62 11 -13 25 -29 32 -36 6 -8 12 -16 12 -19 0 -3 14 -25 30
-50 33 -49 82 -162 105 -241 44 -151 40 -368 -10 -524 -79 -249 -245 -444
-477 -562 -60 -30 -179 -72 -238 -84 -53 -11 -306 -15 -338 -6 -15 5 -52 14
-82 21 -203 47 -420 202 -543 387 -52 79 -117 218 -117 252 0 23 60 95 94 113
11 6 39 12 61 13 l40 2 29 -86 c65 -196 218 -358 410 -435 256 -102 555 -46
749 142 51 50 61 62 69 84 5 13 3 15 -9 11 -12 -5 -15 -2 -11 9 4 9 1 21 -5
28 -9 10 -9 11 0 6 9 -5 11 -2 7 8 -3 9 -11 13 -18 9 -6 -4 -4 2 4 12 8 10 10
16 3 12 -6 -4 -14 -1 -16 5 -4 10 -6 10 -6 0 -1 -9 -6 -10 -20 -2 -16 8 -20 6
-24 -8 -4 -14 -5 -14 -6 -1 -1 11 -20 -3 -58 -41 -69 -67 -98 -88 -178 -122
-174 -76 -395 -51 -545 61 -145 108 -229 279 -224 456 1 50 4 100 7 111 27
112 88 215 173 293 37 34 73 61 80 61 7 0 14 4 16 8 6 16 136 62 197 70 95 13
201 2 270 -29 24 -10 50 -19 57 -19 8 0 14 -4 14 -8 0 -5 13 -15 29 -23 16 -8
55 -36 86 -64 58 -49 89 -63 100 -45 4 6 11 7 17 4 7 -5 8 -2 3 6 -6 10 -4 12
7 7 21 -8 29 2 18 22 -5 10 -5 23 0 31 5 9 4 20 -3 29 -9 12 -9 13 1 7 27 -16
9 13 -30 50 -108 101 -223 157 -388 189 -101 20 -294 -9 -401 -60 -151 -72
-230 -148 -344 -329 -25 -41 -108 -23 -164 37 -47 49 -47 53 11 145 46 72 80
113 163 195 37 36 55 61 47 64 -6 3 -10 9 -6 14 3 5 0 9 -6 9 -7 0 -10 7 -7
14 4 10 1 13 -9 9 -7 -3 -14 0 -14 7 0 10 -4 9 -16 0 -12 -11 -15 -11 -12 0 4
18 -73 14 -84 -3 -5 -9 -8 -8 -8 2 0 22 -115 -106 -175 -196 -74 -110 -139
-259 -160 -364 -27 -132 -34 -276 -20 -384 9 -66 43 -212 59 -250 47 -111 67
-149 117 -226 31 -47 86 -117 123 -155 36 -37 66 -72 66 -77 0 -30 -75 -72
-146 -81 l-52 -6 -50 55 c-148 161 -286 444 -308 629 -3 22 -7 44 -10 48 -4 7
-17 202 -15 233 5 96 14 168 28 230 2 11 7 36 10 56 l5 35 -78 -3 c-44 -1 -85
-3 -91 -3 -7 0 -42 0 -77 1 -35 1 -69 -2 -75 -5 -6 -4 -11 -4 -11 1 0 4 -312
8 -694 8 l-693 -1 -38 -33 c-21 -18 -47 -42 -60 -54 -12 -12 -62 -58 -111
-102 -49 -44 -114 -103 -144 -131 -110 -101 -97 -94 -133 -76 -46 24 -142 21
-192 -6 -79 -42 -118 -106 -118 -198 -1 -52 4 -70 29 -110 70 -115 217 -145
322 -67 59 44 85 95 87 172 2 75 -2 69 100 160 28 25 88 79 135 122 47 43 107
97 133 121 l48 43 737 0 737 0 -2 -30 c-3 -61 -3 -301 1 -325 3 -14 8 -50 11
-80 4 -30 10 -59 13 -64 3 -5 6 -21 8 -35 10 -86 105 -311 184 -438 87 -141
228 -296 349 -387 31 -22 58 -44 59 -48 2 -5 10 -8 18 -8 8 0 14 -4 14 -10 0
-5 5 -10 11 -10 6 0 24 -9 40 -21 42 -29 182 -97 259 -124 229 -82 497 -108
722 -71 18 3 45 8 59 10 80 13 265 75 359 122 47 23 174 96 180 103 3 3 39 31
80 62 102 77 190 166 274 280 79 106 90 125 152 251 41 83 98 244 108 304 2
16 5 29 6 29 1 0 3 11 5 25 2 14 6 45 10 70 4 25 8 108 10 185 3 156 -17 298
-61 445 -37 125 -142 330 -224 440 -68 91 -250 280 -270 280 -5 0 -14 9 -20
19 -7 15 -5 31 10 67 26 59 49 80 116 101 45 14 58 14 78 4 39 -21 193 -177
275 -277 70 -86 241 -389 241 -427 0 -7 4 -17 8 -23 9 -10 59 -164 65 -204 3
-14 9 -43 15 -65 6 -22 13 -65 17 -96 3 -31 8 -67 11 -80 6 -30 6 -306 0 -336
-3 -12 -7 -48 -11 -79 -3 -32 -8 -60 -10 -63 -1 -3 -6 -24 -9 -45 -9 -56 -16
-83 -39 -156 -12 -36 -22 -67 -22 -70 -2 -6 -7 -18 -43 -105 -53 -129 -162
-309 -255 -420 -60 -71 -195 -205 -242 -240 -22 -17 -42 -32 -45 -35 -3 -3
-21 -17 -40 -30 -19 -13 -37 -27 -40 -30 -3 -4 -12 -10 -20 -13 -8 -4 -33 -18
-55 -32 -67 -43 -257 -135 -276 -135 -11 0 -19 -5 -19 -12 0 -6 -3 -9 -6 -5
-4 3 -19 0 -35 -9 -16 -8 -29 -12 -29 -10 0 3 -25 -4 -55 -14 -30 -10 -55 -17
-55 -15 0 3 -11 0 -24 -5 -13 -5 -44 -11 -67 -15 -24 -3 -51 -8 -59 -10 -84
-24 -461 -24 -550 0 -8 2 -33 6 -55 10 -52 7 -236 61 -283 82 -20 9 -43 17
-50 19 -48 10 -295 151 -376 214 -113 89 -286 259 -324 319 -9 14 -19 28 -23
31 -20 15 -127 189 -169 276 -49 100 -130 326 -130 364 0 11 -3 19 -7 19 -22
-4 -33 2 -27 14 5 7 0 6 -11 -3 -13 -10 -16 -11 -11 -2 6 11 0 13 -30 10 -30
-3 -41 -10 -55 -35 -16 -29 -16 -34 1 -97 68 -243 199 -502 346 -685 119 -146
269 -284 424 -391 49 -33 91 -60 94 -60 3 0 28 -14 55 -30 57 -36 192 -95 301
-133 138 -48 296 -81 445 -93 70 -5 290 -9 290 -4 0 1 20 3 45 5 133 8 389 65
475 105 11 5 45 19 75 31 232 89 516 291 693 493 225 258 394 599 442 896 3
19 8 42 10 50 19 72 28 450 12 530 -4 19 -9 55 -11 80 -8 69 -51 234 -90 342
-51 141 -120 277 -206 404 -94 140 -131 185 -250 302 -254 252 -564 419 -927
502 -110 25 -215 34 -393 35 -188 0 -266 -7 -390 -35 -52 -12 -100 -22 -107
-23 -7 0 -12 -3 -11 -6 3 -26 -4 -41 -14 -35 -7 4 -4 -3 7 -16 13 -15 15 -21
5 -16 -11 6 -11 4 1 -6 9 -7 17 -16 17 -20 1 -5 5 -8 9 -7 10 1 25 -30 18 -40
-3 -5 23 -3 57 6 35 8 77 16 93 19 17 2 41 6 55 9 110 22 417 22 520 0 14 -3
40 -8 57 -11 18 -3 63 -13 100 -22 66 -16 69 -19 91 -64 35 -69 35 -105 2
-169 -31 -61 -27 -60 -140 -29 -136 37 -235 48 -399 45 -86 -2 -167 -6 -181
-9 -13 -3 -42 -8 -64 -12 -22 -3 -45 -8 -50 -12 -19 -11 -666 -9 -666 3 0 7
-3 7 -8 0 -4 -6 -34 -10 -67 -10 -33 0 -63 4 -67 10 -5 7 -8 7 -8 0 0 -6 -45
-10 -117 -10 l-118 0 -185 185 c-226 227 -214 213 -200 241 17 30 14 121 -5
166 -25 60 -91 118 -147 129 -13 2 -32 6 -43 8 -11 2 -41 -2 -67 -8z m116
-102 c67 -33 93 -127 51 -190 -65 -100 -226 -64 -242 54 -14 107 92 183 191
136z m-1623 -2166 c36 -12 78 -53 80 -78 0 -8 3 -27 5 -43 16 -94 -113 -170
-196 -115 -92 61 -84 191 14 234 39 17 54 17 97 2z"/>
<path d="M4025 5111 c-63 -27 -103 -56 -92 -67 4 -4 -1 -13 -11 -21 -9 -8 -12
-12 -6 -9 7 3 14 -3 17 -15 4 -16 3 -18 -8 -9 -12 10 -12 7 -2 -14 8 -16 14
-21 19 -13 5 7 8 3 8 -12 0 -20 2 -22 16 -11 8 8 14 9 12 4 -8 -23 20 -16 102
25 42 21 55 33 54 49 -1 12 2 19 6 17 4 -3 11 2 14 10 3 9 -1 18 -9 21 -8 4
-15 14 -15 23 0 9 -8 25 -17 36 l-16 20 7 -20 c5 -18 5 -18 -7 -4 -11 15 -18
14 -72 -10z"/>
<path d="M536 4749 c-67 -10 -124 -54 -159 -120 -25 -46 -28 -62 -24 -110 11
-131 107 -215 238 -207 l58 3 208 -207 208 -206 945 1 c520 0 952 -3 959 -8 9
-5 12 -4 8 1 -8 13 86 12 95 -1 5 -7 8 -7 8 0 0 13 348 13 369 1 9 -6 12 -5 8
1 -4 6 14 9 48 7 30 -2 54 0 52 4 -3 10 80 159 111 200 14 18 22 35 18 39 -3
3 -6 4 -6 1 0 -3 -16 -2 -35 2 -19 4 -35 5 -35 0 0 -4 -19 -5 -42 -3 -50 4
-56 1 -87 -49 l-23 -38 -96 -1 c-53 0 -123 -1 -155 -2 -32 -2 -61 1 -63 5 -3
5 -14 3 -25 -2 -13 -8 -19 -7 -19 0 0 6 -4 8 -10 5 -5 -3 -450 -6 -987 -5
l-978 0 -177 178 -177 177 14 52 c43 164 -83 307 -249 282z m113 -108 c28 -15
60 -80 57 -114 -6 -50 -29 -87 -68 -111 -34 -20 -45 -22 -85 -15 -78 15 -127
91 -108 166 9 36 68 91 103 95 30 4 69 -4 101 -21z"/>
<path d="M2020 4630 c-139 -25 -219 -178 -161 -307 68 -150 271 -179 372 -54
l30 38 782 -1 782 -1 75 60 c41 34 86 69 100 79 14 10 17 16 8 13 -10 -4 -18
-3 -18 1 0 8 -148 7 -156 -1 -3 -3 -16 -2 -29 3 -13 5 -26 6 -29 3 -8 -8 -393
-6 -405 1 -5 4 -12 2 -16 -4 -4 -6 -10 -8 -16 -5 -8 6 -83 9 -104 5 -5 -1 -32
-1 -60 0 -27 1 -240 3 -473 4 l-423 1 -18 41 c-42 93 -138 143 -241 124z m93
-97 c56 -28 71 -50 79 -112 4 -34 -7 -66 -32 -95 -28 -32 -72 -53 -95 -46 -5
1 -19 3 -30 4 -56 5 -105 65 -105 129 0 93 103 162 183 120z"/>
<path d="M4424 4398 c-3 -5 -11 -7 -17 -5 -7 2 -18 -3 -25 -12 -11 -13 -12
-13 -7 -1 4 10 2 9 -8 -2 -8 -10 -17 -15 -20 -11 -4 3 -7 1 -7 -5 0 -7 -6 -11
-12 -9 -7 1 -14 -9 -16 -22 -3 -19 -6 -21 -13 -10 -6 9 -8 2 -7 -23 1 -22 5
-35 11 -31 6 4 8 0 5 -8 -7 -20 27 -50 41 -36 6 6 11 8 11 4 0 -4 13 -1 30 8
16 8 31 15 32 14 2 0 16 4 31 10 16 6 35 11 43 11 8 0 14 5 14 11 0 5 5 7 10
4 6 -3 11 0 11 7 1 7 3 23 4 36 2 16 -2 21 -11 18 -8 -3 -11 0 -7 10 3 7 0 14
-7 14 -6 0 -9 4 -6 9 3 5 -2 12 -12 16 -26 12 -62 13 -68 3z"/>
<path d="M2915 3400 c3 -5 -1 -10 -9 -10 -14 0 -42 -37 -39 -51 1 -3 3 -40 4
-82 1 -42 6 -77 10 -77 4 0 6 -8 4 -19 -2 -12 2 -18 13 -17 9 0 16 -5 14 -12
-1 -8 2 -11 8 -7 6 3 8 11 4 16 -3 5 0 8 8 7 7 -2 16 -10 20 -18 5 -11 7 -10
7 5 1 17 3 17 11 5 6 -10 10 -11 10 -2 0 6 6 12 14 12 8 0 18 4 21 10 4 6 -1
7 -12 4 -15 -5 -15 -3 3 13 16 14 20 27 17 58 -2 22 -4 55 -3 74 0 18 -5 40
-12 49 -11 13 -11 15 2 8 8 -4 6 0 -4 8 -11 9 -24 16 -29 16 -4 0 -6 4 -3 8 8
13 -28 11 -36 -2 -5 -8 -8 -7 -8 2 0 6 -5 12 -11 12 -5 0 -7 -4 -4 -10z"/>
</g>
</svg>
